<svg width="18" height="18" viewBox="0 0 18 18" fill="none" xmlns="http://www.w3.org/2000/svg">
<path fill-rule="evenodd" clip-rule="evenodd" d="M5.85903 1.875H12.141C14.5484 1.875 16.5 3.87087 16.5 6.33281V6.88917L16.5001 6.90181L16.5 6.91445V10.8898L16.5001 10.9024L16.5 10.9151V11.6672C16.5 14.1291 14.5484 16.125 12.141 16.125H5.85903C3.45164 16.125 1.5 14.1291 1.5 11.6672V6.33281C1.5 3.87087 3.45164 1.875 5.85903 1.875ZM15.4098 6.33281V6.34437H13.0128L12.8755 6.34823C11.5576 6.42183 10.511 7.53685 10.511 8.90212C10.5119 10.3148 11.6313 11.459 13.0125 11.4599H15.4098V11.6672C15.4098 13.5134 13.9463 15.0101 12.141 15.0101H5.85904C4.05374 15.0101 2.59019 13.5134 2.59019 11.6672V6.33281C2.59019 4.4866 4.05374 2.98989 5.85904 2.98989H12.141C13.9463 2.98989 15.4098 4.4866 15.4098 6.33281ZM13.0131 7.45925L15.4098 7.45925V10.345H13.0128L12.9025 10.3406C12.1747 10.2827 11.6017 9.66085 11.6012 8.90178C11.6012 8.10557 12.2332 7.45974 13.0131 7.45925ZM13.8907 8.85633C13.8907 8.54846 13.6467 8.29888 13.3456 8.29888H13.1191L13.0451 8.30397C12.7791 8.34089 12.574 8.57412 12.574 8.85633C12.574 9.1642 12.8181 9.41377 13.1191 9.41377H13.3456L13.4196 9.40868C13.6857 9.37177 13.8907 9.13854 13.8907 8.85633ZM9.8105 5.80547C9.8105 5.4976 9.56645 5.24802 9.26541 5.24802H5.34151L5.26755 5.25311C5.00149 5.29002 4.79642 5.52325 4.79642 5.80547C4.79642 6.11333 5.04047 6.36291 5.34151 6.36291H9.26541L9.33937 6.35782C9.60543 6.32091 9.8105 6.08768 9.8105 5.80547Z" fill="#2C665D"/>
</svg>
